<?xml version="1.0" encoding="UTF-8" standalone="no"?>
<!-- Created with Inkscape (http://www.inkscape.org/) -->

<svg
   xmlns:dc="http://purl.org/dc/elements/1.1/"
   xmlns:cc="http://creativecommons.org/ns#"
   xmlns:rdf="http://www.w3.org/1999/02/22-rdf-syntax-ns#"
   xmlns:svg="http://www.w3.org/2000/svg"
   xmlns="http://www.w3.org/2000/svg"
   xmlns:sodipodi="http://sodipodi.sourceforge.net/DTD/sodipodi-0.dtd"
   xmlns:inkscape="http://www.inkscape.org/namespaces/inkscape"
   width="744.09448819"
   height="1052.3622047"
   id="svg2"
   version="1.1"
   inkscape:version="0.48.3.1 r9886"
   sodipodi:docname="post-pre.svg">
  <defs
     id="defs4" />
  <sodipodi:namedview
     id="base"
     pagecolor="#ffffff"
     bordercolor="#666666"
     borderopacity="1.0"
     inkscape:pageopacity="0.0"
     inkscape:pageshadow="2"
     inkscape:zoom="0.49497475"
     inkscape:cx="375"
     inkscape:cy="520"
     inkscape:document-units="px"
     inkscape:current-layer="layer1"
     showgrid="false"
     inkscape:window-width="959"
     inkscape:window-height="744"
     inkscape:window-x="65"
     inkscape:window-y="24"
     inkscape:window-maximized="1" />
  <metadata
     id="metadata7">
    <rdf:RDF>
      <cc:Work
         rdf:about="">
        <dc:format>image/svg+xml</dc:format>
        <dc:type
           rdf:resource="http://purl.org/dc/dcmitype/StillImage" />
        <dc:title></dc:title>
      </cc:Work>
    </rdf:RDF>
  </metadata>
  <g
     inkscape:label="Layer 1"
     inkscape:groupmode="layer"
     id="layer1">
    <path
       sodipodi:type="arc"
       style="fill:#cccccc;stroke:#000000"
       id="path2987"
       sodipodi:cx="158.59395"
       sodipodi:cy="243.23"
       sodipodi:rx="106.06602"
       sodipodi:ry="182.83762"
       d="m 264.65997,243.23 a 106.06602,182.83762 0 1 1 -212.132039,0 106.06602,182.83762 0 1 1 212.132039,0 z"
       transform="translate(-7.695424,-3.7253812e-7)" />
    <path
       sodipodi:type="arc"
       style="fill:#cccccc;stroke:#000000"
       id="path2987-0"
       sodipodi:cx="158.59395"
       sodipodi:cy="243.23"
       sodipodi:rx="106.06602"
       sodipodi:ry="182.83762"
       d="m 264.65997,243.23 a 106.06602,182.83762 0 1 1 -212.132039,0 106.06602,182.83762 0 1 1 212.132039,0 z"
       transform="translate(442.82751,-5.0101542)" />
    <path
       sodipodi:type="arc"
       style="fill:#ffff00;stroke:#000000"
       id="path3025-2"
       sodipodi:cx="133.34013"
       sodipodi:cy="247.2706"
       sodipodi:rx="98.994949"
       sodipodi:ry="120.20815"
       d="m 232.33508,247.2706 a 98.994949,120.20815 0 1 1 -197.989896,0 98.994949,120.20815 0 1 1 197.989896,0 z"
       transform="matrix(0.87986355,0,0,1,488.14094,11.152293)" />
    <path
       sodipodi:type="arc"
       style="fill:#ffff00;stroke:#000000"
       id="path3025"
       sodipodi:cx="133.34013"
       sodipodi:cy="247.2706"
       sodipodi:rx="98.994949"
       sodipodi:ry="120.20815"
       d="m 232.33508,247.2706 a 98.994949,120.20815 0 1 1 -197.989896,0 98.994949,120.20815 0 1 1 197.989896,0 z"
       transform="matrix(0.87986355,0,0,1,38.857092,-12.121831)" />
    <path
       sodipodi:type="arc"
       style="fill:#00ffff;stroke:#000000"
       id="path3007"
       sodipodi:cx="232.33508"
       sodipodi:cy="155.34673"
       sodipodi:rx="60.609154"
       sodipodi:ry="24.243662"
       d="m 292.94424,155.34673 a 60.609154,24.243662 0 1 1 -121.21831,0 60.609154,24.243662 0 1 1 121.21831,0 z"
       transform="translate(-76.385796,-2.0203051)" />
    <path
       sodipodi:type="arc"
       style="fill:#00ffff;stroke:#000000"
       id="path3009"
       sodipodi:cx="556.59406"
       sodipodi:cy="339.19449"
       sodipodi:rx="63.63961"
       sodipodi:ry="22.223356"
       d="m 620.23367,339.19449 a 63.63961,22.223356 0 1 1 -127.27923,0 63.63961,22.223356 0 1 1 127.27923,0 z"
       transform="translate(49.878169,-10.060915)" />
    <path
       style="fill:none;stroke:#000000;stroke-width:1px;stroke-linecap:butt;stroke-linejoin:miter;stroke-opacity:1"
       d="m 123.62441,155.34672 c -15.35609,0 -2.44689,-1.20467 -12.12183,2.02031 -0.63888,0.21296 -1.34687,0 -2.02031,0 -3.18009,0 -2.49296,-0.60234 -4.04061,4.04061 -0.19888,0.59664 -0.0555,15.88503 0,16.16244 0.59064,2.95321 3.08823,5.22408 4.04061,8.08122 0.21296,0.63888 0,1.34687 0,2.0203 0,4.71405 0,9.42809 0,14.14214 0,0.79865 0.43142,9.23869 0,10.10153 -0.42592,0.85183 -1.59439,1.16846 -2.0203,2.0203 -0.30117,0.60234 0.47619,1.54412 0,2.02031 -0.47619,0.47619 -1.54412,-0.47619 -2.02031,0 -0.95238,0.95238 0.95238,3.08822 0,4.04061 -0.47619,0.47619 -1.54411,-0.47619 -2.0203,0 -0.47619,0.47619 0.47619,1.54411 0,2.0203 -0.47619,0.47619 -2.02031,0.67344 -2.02031,0 0,-0.67343 1.54412,0.47619 2.02031,0 0.47619,-0.47619 0,-1.34687 0,-2.0203"
       id="path3011"
       inkscape:connector-curvature="0" />
    <path
       style="fill:none;stroke:#000000;stroke-width:1px;stroke-linecap:butt;stroke-linejoin:miter;stroke-opacity:1"
       d="m 141.80715,153.32642 c 4.70757,0.10034 4.22437,8.1731 8.08122,10.10152 0.60234,0.30117 1.54412,-0.47619 2.02031,0 0.47619,0.47619 -0.37356,1.45998 0,2.02031 1.05657,1.58486 2.69374,2.69374 4.04061,4.04061 3.36717,3.36717 6.73435,6.73435 10.10152,10.10152 1.34687,1.34687 2.98404,2.45576 4.04061,4.04061 0.37356,0.56034 -0.47619,1.54412 0,2.02031 0.47619,0.47619 1.54412,-0.47619 2.02031,0 0.47619,0.47619 0,1.34687 0,2.0203 0,0.67344 0.30117,1.41797 0,2.02031 -0.42592,0.85183 -1.59439,1.16847 -2.02031,2.0203 -0.60233,1.20468 0.60234,2.83594 0,4.04061 -0.42591,0.85184 -1.59438,1.16847 -2.0203,2.02031 -0.30117,0.60234 0.47619,1.54411 0,2.0203 -0.47619,0.4762 -1.41797,-0.30116 -2.02031,0 -0.85183,0.42592 -1.16847,1.59439 -2.0203,2.02031 -0.60234,0.30117 -1.54412,-0.47619 -2.02031,0 -0.47619,0.47619 0.30117,1.41797 0,2.0203 -0.42591,0.85184 -1.34687,1.34688 -2.0203,2.02031 -2.60063,2.60063 -4.82887,4.38508 -6.06092,8.08122 -0.42591,1.27775 0.95238,3.08823 0,4.04061 -0.47619,0.47619 -1.54411,-0.47619 -2.0203,0 -0.47619,0.47619 0.47619,1.54412 0,2.02031 -0.47619,0.47619 -1.54412,-0.47619 -2.02031,0 -0.47619,0.47619 0.30117,1.41796 0,2.0203 -4.5985,4.5985 -0.53396,-0.41842 -2.0203,4.04061 -4.87797,14.63391 0.58246,-3.18523 -4.04061,6.06092 -0.30117,0.60233 0.30117,1.41796 0,2.0203 -0.42592,0.85184 -1.59439,1.16847 -2.02031,2.02031 -0.9035,1.80701 0.90351,4.2539 0,6.06091 -0.30117,0.60234 -1.54411,-0.47619 -2.0203,0 -0.47619,0.47619 0.47619,1.54412 0,2.02031 -0.47619,0.47619 -1.54412,-0.47619 -2.02031,0 -0.47619,0.47619 0,1.34687 0,2.0203 -1.34687,0.67344 -2.61204,1.54412 -4.04061,2.02031 -0.63887,0.21296 -1.54411,-0.47619 -2.0203,0 -0.47619,0.47619 0.47619,1.54411 0,2.0203 -0.95238,0.95238 -3.08823,-0.95238 -4.04061,0 -0.47619,0.47619 0.47619,1.54412 0,2.02031 -0.47619,0.47619 -1.41797,-0.30117 -2.02031,0 -0.85183,0.42591 -1.34687,1.34687 -2.0203,2.0203 -0.67344,0.67344 -1.59439,1.16847 -2.02031,2.02031 -0.30117,0.60234 0,1.34687 0,2.0203 0,1.34687 -0.26414,2.7199 0,4.04061 1.3401,6.70051 1.88562,4.71405 4.04061,10.10153 0.79091,1.97727 1.50381,3.99491 2.02031,6.06091 0.16333,0.65333 -0.30117,1.41797 0,2.02031 1.08588,2.17176 2.95473,3.88915 4.04061,6.06091 0.42592,0.85184 -1.06793,-2.0203 -2.02031,-2.0203 -0.67343,0 -0.30117,1.41797 0,2.0203 0.42592,0.85184 1.34687,1.34687 2.02031,2.02031 0.67343,0.67343 1.34687,1.34687 2.0203,2.0203"
       id="path3013"
       inkscape:connector-curvature="0" />
    <path
       style="fill:none;stroke:#000000;stroke-width:1px;stroke-linecap:butt;stroke-linejoin:miter;stroke-opacity:1"
       d="m 190.29448,155.34672 c 0,2.69374 2.69374,8.08122 0,8.08122 -2.69374,0 -1.90477,-9.98598 0,-8.08122 0.67343,3.36718 1.34687,6.73435 2.0203,10.10153 -0.67343,0 -2.0203,-0.67344 -2.0203,0 0,1.50584 1.54411,2.61204 2.0203,4.04061 0.21296,0.63888 0,1.34687 0,2.0203 1.34687,1.34687 2.89775,2.5168 4.04061,4.04061 0.90351,1.20468 0.95551,2.97582 2.02031,4.04061 0.47619,0.47619 1.54411,-0.47619 2.0203,0 0.47619,0.47619 -0.30117,1.41797 0,2.02031 0.85184,1.70367 2.98404,2.45575 4.04061,4.04061 2.48653,3.72979 3.57439,8.39204 6.06092,12.12183 1.05657,1.58486 3.18877,2.33694 4.04061,4.04061 0.30117,0.60234 -0.47619,1.54411 0,2.0203 0.47619,0.4762 1.54411,-0.47619 2.0203,0 0.47619,0.4762 0.47619,1.54412 0,2.02031 -0.47619,0.47619 -1.54411,-0.47619 -2.0203,0 -0.47619,0.47619 0.47619,1.54411 0,2.02031 -0.47619,0.47619 -1.41797,-0.30117 -2.02031,0 -0.85183,0.42591 -1.16847,1.59438 -2.0203,2.0203 -0.60234,0.30117 -1.34687,0 -2.02031,0 -0.67343,0 -2.0203,0.67344 -2.0203,0 0,-0.67343 2.69374,0 2.0203,0 -1.34687,0 -2.69374,0 -4.04061,0 -0.67343,0 -1.54411,-0.47619 -2.0203,0 -0.47619,0.47619 0.47619,1.54411 0,2.02031 -0.47619,0.47619 -1.54412,0.47619 -2.02031,0 -0.47619,-0.4762 -0.67343,-2.02031 0,-2.02031 0.67344,0 0,2.69374 0,2.02031 0,-1.34687 0.60234,-2.83594 0,-4.04061 -0.30117,-0.60234 -2.0203,0.67343 -2.0203,0 0,-0.67344 1.34687,0 2.0203,0 0,-1.34687 0.60234,-2.83594 0,-4.04062 -0.30117,-0.60233 -1.54411,0.4762 -2.0203,0 -0.47619,-0.47619 0.47619,-1.54411 0,-2.0203 -0.47619,-0.47619 -1.54412,0.47619 -2.02031,0 -0.47619,-0.47619 0.21296,-1.38143 0,-2.02031 -0.47619,-1.42857 -1.18501,-2.78767 -2.0203,-4.04061 -1.02419,-1.53627 -5.276,-4.04061 -2.02031,-4.04061 0.67344,0 0.67344,2.02031 0,2.02031 -0.67343,0 0.30117,-1.41797 0,-2.02031 -0.42592,-0.85183 -1.59439,-1.16847 -2.0203,-2.0203 -0.30117,-0.60234 0.30116,-1.41797 0,-2.02031 -0.42592,-0.85183 -1.59439,-1.16847 -2.02031,-2.0203 -0.30117,-0.60234 0.47619,-1.54412 0,-2.02031 -0.47619,-0.47619 -1.54411,0.47619 -2.02031,0 -0.47619,-0.47619 0.4762,-1.54411 0,-2.0203 -0.47619,-0.47619 -2.0203,0.67343 -2.0203,0 0,-0.67344 2.0203,0.67343 2.0203,0 0,-3.06567 -2.83321,-1.61784 -4.04061,-2.02031 -1.42857,-0.47619 -2.61203,-1.54411 -4.04061,-2.0203 -1.20739,-0.40247 -4.04061,1.04536 -4.04061,-2.02031 0,-0.95238 1.59439,-1.16847 2.02031,-2.0203 0.30117,-0.60234 -0.67344,-2.02031 0,-2.02031 0.67343,0 0,2.69374 0,2.02031 0,-1.34687 0,-2.69374 0,-4.04061 0,-0.67344 0.30117,-1.41797 0,-2.02031 -0.42592,-0.85183 -1.59439,-1.16847 -2.02031,-2.0203 -0.30116,-0.60234 0.47619,-1.54412 0,-2.02031 -0.47619,-0.47619 -1.54411,0.47619 -2.0203,0 -0.47619,-0.47619 0.21296,-1.38143 0,-2.0203 -0.47619,-1.42857 -1.18501,-2.78767 -2.02031,-4.04061 -1.05657,-1.58486 -2.69374,-2.69374 -4.04061,-4.04061"
       id="path3015"
       inkscape:connector-curvature="0" />
    <path
       style="fill:none;stroke:#000000;stroke-width:1px;stroke-linecap:butt;stroke-linejoin:miter;stroke-opacity:1"
       d="m 135.74624,161.40764 c -2.82036,3.31975 -11.94585,3.68865 -14.14214,8.08122 -0.2264,0.45281 0,7.60113 0,8.08122 0,1.34687 -0.26414,2.71989 0,4.04061 0.41765,2.08823 1.34687,4.04061 2.02031,6.06091 0.67343,2.02031 1.06792,4.15616 2.0203,6.06092 0.42592,0.85183 1.59439,1.16847 2.02031,2.0203 0.30117,0.60234 -0.47619,1.54412 0,2.02031 0.47619,0.47619 1.54411,-0.47619 2.0203,0 1.0648,1.06479 1.1168,2.83593 2.02031,4.04061 1.14285,1.52381 2.69374,2.69374 4.04061,4.04061 1.34687,1.34687 2.5168,2.89775 4.04061,4.04061 1.20468,0.90351 2.78767,1.18501 4.04061,2.02031 1.58486,1.05657 2.33694,3.18877 4.04061,4.04061 0.60234,0.30116 1.54411,-0.47619 2.0203,0 0.47619,0.47619 -0.47619,1.54411 0,2.0203 0.47619,0.47619 1.41797,-0.30117 2.02031,0 0.85183,0.42592 1.34687,1.34687 2.0203,2.02031 1.34687,0 2.76286,-0.42592 4.04061,0 0.90351,0.30116 1.34687,1.34687 2.02031,2.0203 0.67343,0.67344 1.71913,1.1168 2.0203,2.02031 0.42592,1.27775 -0.60233,2.83593 0,4.04061 0.30117,0.60233 1.41797,-0.30117 2.02031,0 0.85183,0.42591 1.59439,1.16847 2.0203,2.0203 0.30117,0.60234 0,1.34687 0,2.02031 0,1.34687 0.42592,2.76285 0,4.04061 -0.30117,0.9035 -1.71913,1.11679 -2.0203,2.0203 -0.42592,1.27775 0.32666,2.73396 0,4.04061 -0.36522,1.46089 -1.65508,2.57973 -2.02031,4.04061 -1.10584,4.42339 2.12585,16.21521 6.06092,18.18275 0.60234,0.30117 1.41797,-0.30117 2.0203,0 6.16105,3.08052 -3.69502,1.60162 6.06092,4.04061 1.30666,0.32666 2.79007,-0.50022 4.04061,0 11.03541,4.41416 2.40854,4.04061 8.08122,4.04061"
       id="path3017"
       inkscape:connector-curvature="0" />
    <path
       style="fill:none;stroke:#000000;stroke-width:1px;stroke-linecap:butt;stroke-linejoin:miter;stroke-opacity:1"
       d="m 550.91383,191.75282 c -2.25129,9.00517 -0.0569,6.11784 -4.04061,10.10153 -0.67343,0.67344 -1.59439,1.16847 -2.0203,2.02031 -0.30117,0.60233 0,1.34687 0,2.0203 -0.67344,1.34687 -1.18502,2.78767 -2.02031,4.04061 -0.52828,0.79243 -1.34687,1.34687 -2.0203,2.02031 -0.67344,0.67343 -1.16847,1.59438 -2.02031,2.0203 -0.60234,0.30117 -1.54411,-0.47619 -2.0203,0 -0.47619,0.47619 -0.47619,1.54412 0,2.02031 0.47619,0.47619 1.54411,-0.47619 2.0203,0 0.95238,0.95238 -0.42592,2.76285 0,4.04061 0.47619,1.42857 1.34687,2.69374 2.02031,4.04061 0.67343,1.34687 1.18501,2.78767 2.0203,4.04061 1.22608,1.83911 5.16558,4.27024 6.06092,6.06091 0.30117,0.60234 -0.37356,1.45997 0,2.02031 2.11314,3.16971 6.37755,4.67388 8.08122,8.08122 0.30117,0.60234 -1.34687,0 -2.02031,0 -0.67343,-0.67344 -2.69374,-2.69374 -2.0203,-2.02031 5.01237,5.01238 7.8768,8.36263 14.14213,12.12183 1.29126,0.77475 2.78767,1.18501 4.04061,2.02031 0.79243,0.52828 1.34687,1.34687 2.02031,2.0203 0.67343,0.67344 1.49202,1.22788 2.0203,2.02031 0.8353,1.25294 1.1168,2.83593 2.02031,4.04061 1.14286,1.52381 2.89775,2.5168 4.04061,4.04061 0.90351,1.20468 0.95551,2.97581 2.0203,4.04061 0.47619,0.47619 0.47619,-1.54412 0,-2.02031 -0.47619,-0.47619 -1.34687,0 -2.0203,0 -0.67344,0 -1.41797,-0.30117 -2.02031,0 -0.85183,0.42592 -1.16847,1.59439 -2.0203,2.02031 -0.60234,0.30117 -1.54412,-0.47619 -2.02031,0 -0.47619,0.47619 0.30117,1.41796 0,2.0203 -0.42591,0.85184 -1.59438,1.16847 -2.0203,2.02031 -0.30117,0.60234 0.47619,1.54411 0,2.0203 -0.95238,0.95238 -3.08823,-0.95238 -4.04061,0 -0.47619,0.47619 0.30117,1.41797 0,2.02031 -0.42592,0.85183 -1.59439,1.16847 -2.02031,2.0203 -0.30117,0.60234 0.67344,2.02031 0,2.02031 -0.67343,0 -0.67343,-2.02031 0,-2.02031 2.69374,0 -2.0203,4.71405 -2.0203,2.02031 0,-0.67344 2.49649,-0.47619 2.0203,0 -2.99084,2.99084 -10.10152,2.11934 -10.10152,8.08122 0,1.50585 2.0203,2.53476 2.0203,4.04061 0,0.67343 -2.0203,-0.67344 -2.0203,0 0,0.95238 1.59438,1.16847 2.0203,2.0203 0.60234,1.20468 -0.60234,2.83594 0,4.04061 0.42592,0.85184 1.59439,1.16847 2.02031,2.02031 0.30117,0.60234 0.67343,2.0203 0,2.0203 -0.67344,0 0,-2.69374 0,-2.0203 0,1.34687 0,2.69374 0,4.04061 0,0.67343 0,-2.69374 0,-2.02031 0,11.4484 -1.34687,0.67344 2.0203,4.04061 0.95238,0.95239 -0.42592,2.76286 0,4.04062 0.47619,1.42857 1.34687,2.69374 2.02031,4.04061 0.67343,1.34687 1.18501,2.78767 2.0203,4.04061 -0.20167,4.00234 2.97582,0.95551 4.04061,2.0203 0.47619,0.47619 -0.30117,1.41797 0,2.02031 0.42592,0.85183 1.59439,1.16847 2.02031,2.0203 0.30117,0.60234 -0.47619,1.54412 0,2.02031 0.47619,0.47619 1.41796,-0.30117 2.0203,0 4.46701,2.2335 0.62695,1.25388 2.02031,4.04061 0.42592,0.85183 1.59439,1.16847 2.0203,2.0203 0.30117,0.60234 -0.47619,1.54412 0,2.02031 0.47619,0.47619 1.54412,0.47619 2.02031,0 0.47619,-0.47619 0,-1.34687 0,-2.02031"
       id="path3019"
       inkscape:connector-curvature="0" />
    <path
       style="fill:none;stroke:#000000;stroke-width:1px;stroke-linecap:butt;stroke-linejoin:miter;stroke-opacity:1"
       d="m 587.27932,321.05235 c -2.0203,-2.69374 -4.04061,-5.38748 -6.06091,-8.08122 0,-0.67344 0.30117,-1.41797 0,-2.02031 -0.42592,-0.85183 -1.59439,-1.16846 -2.02031,-2.0203 -0.30117,-0.60234 0.21296,-1.38143 0,-2.02031 -1.43607,-4.30821 -2.77201,-4.79231 -6.06091,-8.08122 -0.67344,-0.67343 2.69374,1.34687 2.0203,2.02031 -0.67343,0.67343 -2.0203,-1.06792 -2.0203,-2.02031 0,-0.67343 1.41796,-0.30116 2.0203,0 0.85184,0.42592 1.06793,2.02031 2.02031,2.02031 0.67343,0 -0.30117,-1.41797 0,-2.02031 4.20401,-8.40802 -0.13948,2.15978 4.04061,-2.0203 0.47619,-0.47619 -0.47619,-1.54412 0,-2.02031 0.47619,-0.47619 2.0203,-0.67343 2.0203,0 0,0.67344 -2.69374,0 -2.0203,0 2.0203,0 4.04061,0 6.06091,0 1.34687,0 2.69374,0 4.04061,0 0.67344,0 2.02031,-0.67343 2.02031,0 0,0.67344 -2.69374,0 -2.02031,0 1.34687,0 2.69374,0 4.04061,0 1.34687,0 2.76286,-0.42591 4.04061,0 0.90351,0.30117 1.16847,1.59439 2.02031,2.02031 1.61624,0.80812 4.44467,-0.80812 6.06091,0 0.85184,0.42592 1.16847,1.59439 2.02031,2.0203 0.60234,0.30117 1.54411,-0.47619 2.0203,0 1.0648,1.0648 0.95552,2.97582 2.02031,4.04061 0.47619,0.4762 1.54411,-0.47619 2.0203,0 0.4762,0.4762 -0.30116,1.41797 0,2.02031 0.42592,0.85184 1.59439,1.16847 2.02031,2.0203 0.30117,0.60234 -0.47619,1.54412 0,2.02031 0.47619,0.47619 1.54411,-0.47619 2.0203,0 0.4762,0.47619 0.4762,1.54411 0,2.0203 -0.47619,0.4762 -1.54411,-0.47619 -2.0203,0 -0.47619,0.4762 0.47619,1.54412 0,2.02031 -0.47619,0.47619 -1.54411,-0.47619 -2.02031,0 -0.47619,0.47619 0.30117,1.41797 0,2.02031 -0.42591,0.85183 -1.59438,1.16846 -2.0203,2.0203 -0.30117,0.60234 0.47619,1.54411 0,2.02031 -0.47619,0.47619 -1.54412,-0.4762 -2.02031,0 -0.47619,0.47619 0,1.34687 0,2.0203 0,2.02031 0,4.04061 0,6.06092 0,0.67343 0.47619,-1.54412 0,-2.02031 -0.47619,-0.47619 -1.34687,0 -2.0203,0 -1.34687,0 -2.69374,0 -4.04061,0 -0.67344,0 -1.54412,0.47619 -2.02031,0 -0.47619,-0.47619 0,-1.34687 0,-2.0203 -1.34687,-0.67344 -2.69374,-1.34687 -4.04061,-2.02031"
       id="path3021"
       inkscape:connector-curvature="0" />
    <path
       style="fill:none;stroke:#000000;stroke-width:1px;stroke-linecap:butt;stroke-linejoin:miter;stroke-opacity:1"
       d="m 623.64481,234.17923 c 3.36718,2.69374 6.73436,5.38748 10.10153,8.08122 0.67344,1.34687 0.95551,2.97582 2.02031,4.04061 0.47619,0.47619 2.0203,-0.67343 2.0203,0 0,0.67344 -1.54411,-0.47619 -2.0203,0 -0.48615,0.48615 0.48614,7.59507 0,8.08122 -0.4762,0.47619 -1.54412,-0.47619 -2.02031,0 -0.95238,0.95238 0.60234,2.83594 0,4.04061 -0.42592,0.85184 -1.59439,1.16847 -2.0203,2.02031 -0.30117,0.60234 0.47619,1.54411 0,2.0203 -0.4762,0.47619 -1.54412,-0.47619 -2.02031,0 -0.95238,0.95238 0.60234,2.83594 0,4.04061 -0.85184,1.70367 -3.18877,2.33694 -4.04061,4.04061 -0.30117,0.60234 0,1.34687 0,2.02031 0,1.34687 -0.32666,2.73395 0,4.04061 0.73044,2.92177 3.08823,5.22408 4.04061,8.08122 0.21296,0.63888 -0.30117,1.41797 0,2.0203 4.20401,8.40803 -0.13947,-2.15977 4.04061,2.02031 4.9629,0.72038 0.83902,4.28899 2.02031,6.06091 1.05657,1.58486 2.89775,2.5168 4.04061,4.04061 0.9035,1.20468 1.18501,2.78767 2.0203,4.04061 0.52829,0.79243 1.59439,1.16847 2.02031,2.02031 0.30117,0.60234 0,1.34687 0,2.0203 0,0.67344 0,1.34687 0,2.02031 0,1.65362 0.29556,11.5307 0,12.12183 -0.30117,0.60234 -1.41797,-0.30117 -2.02031,0 -0.85183,0.42592 -1.49202,1.22788 -2.0203,2.02031 -0.25089,0.37632 -3.91115,7.95176 -4.04061,8.08122 -0.4762,0.47619 -1.54412,-0.47619 -2.02031,0 -0.17826,0.17826 0,7.80392 0,2.0203"
       id="path3023"
       inkscape:connector-curvature="0" />
    <text
       xml:space="preserve"
       style="font-size:40px;font-style:normal;font-weight:normal;line-height:125%;letter-spacing:0px;word-spacing:0px;fill:#000000;fill-opacity:1;stroke:none;font-family:Sans"
       x="353.55338"
       y="238.17923"
       id="text3064"
       sodipodi:linespacing="125%"><tspan
         sodipodi:role="line"
         id="tspan3066"
         x="353.55338"
         y="238.17923"
         style="-inkscape-font-specification:TeXGyreAdventor;font-family:TeXGyreAdventor;font-weight:normal;font-style:normal;font-stretch:normal;font-variant:normal">C</tspan></text>
    <text
       xml:space="preserve"
       style="font-size:40px;font-style:normal;font-weight:normal;line-height:125%;letter-spacing:0px;word-spacing:0px;fill:#000000;fill-opacity:1;stroke:none;font-family:Sans"
       x="295.12698"
       y="351.31631"
       id="text3068"
       sodipodi:linespacing="125%"><tspan
         sodipodi:role="line"
         id="tspan3070"
         x="295.12698"
         y="351.31631">post*(C)</tspan></text>
    <text
       xml:space="preserve"
       style="font-size:40px;font-style:normal;font-weight:normal;line-height:125%;letter-spacing:0px;word-spacing:0px;fill:#000000;fill-opacity:1;stroke:none;font-family:Sans"
       x="367.87827"
       y="133.12337"
       id="text3072"
       sodipodi:linespacing="125%"><tspan
         sodipodi:role="line"
         id="tspan3074"
         x="367.87827"
         y="133.12337">pre*(C)</tspan></text>
    <path
       style="fill:none;stroke:#000000;stroke-width:1px;stroke-linecap:butt;stroke-linejoin:miter;stroke-opacity:1"
       d="m 282.84271,333.13357 -68.69037,-38.3858"
       id="path3076"
       inkscape:connector-curvature="0" />
    <path
       style="fill:none;stroke:#000000;stroke-width:1px;stroke-linecap:butt;stroke-linejoin:miter;stroke-opacity:1"
       d="M 335.37064,215.95588 197.9899,155.34672"
       id="path3078"
       inkscape:connector-curvature="0" />
    <path
       style="fill:none;stroke:#000000;stroke-width:1px;stroke-linecap:butt;stroke-linejoin:miter;stroke-opacity:1"
       d="m 391.93919,228.07771 159.6041,103.03556"
       id="path3080"
       inkscape:connector-curvature="0" />
    <path
       style="fill:none;stroke:#000000;stroke-width:1px;stroke-linecap:butt;stroke-linejoin:miter;stroke-opacity:1"
       d="m 452.54834,133.12337 127.27922,42.4264"
       id="path3082"
       inkscape:connector-curvature="0" />
  </g>
</svg>
